# Blender 4.5.3 LTS
# www.blender.org
mtllib mis.mtl
o Plane
v -5.088756 -0.363030 0.823535
v 5.088756 -0.363030 0.823535
v -5.088756 0.363030 -0.823535
v 5.088756 0.363030 -0.823535
vn -0.0000 0.9150 0.4034
vt 0.000000 0.000000
vt 1.000000 0.000000
vt 1.000000 1.000000
vt 0.000000 1.000000
s 0
usemtl Material.001
f 1/1/1 2/2/1 4/3/1 3/4/1
o Plane.001
v -5.088756 1.569980 -2.880381
v 5.088756 1.569980 -2.880381
v -5.088756 2.719257 -4.265719
v 5.088756 2.719257 -4.265719
vn -0.0000 0.7696 0.6385
vt 0.000000 0.000000
vt 1.000000 0.000000
vt 1.000000 1.000000
vt 0.000000 1.000000
s 0
usemtl Material.003
f 5/5/2 6/6/2 8/7/2 7/8/2
o Plane.002
v -5.088756 0.471552 -1.100652
v 5.088756 0.471552 -1.100652
v -5.088756 1.425436 -2.627120
v 5.088756 1.425436 -2.627120
vn -0.0000 0.8480 0.5299
vt 0.000000 0.000000
vt 1.000000 0.000000
vt 1.000000 1.000000
vt 0.000000 1.000000
s 0
usemtl Material.002
f 9/9/3 10/10/3 12/11/3 11/12/3
o Plane.003
v -5.088756 2.925862 -4.482074
v 5.088756 2.925862 -4.482074
v -5.088756 4.302940 -5.641236
v 5.088756 4.302940 -5.641236
vn -0.0000 0.6440 0.7650
vt 0.000000 0.000000
vt 1.000000 0.000000
vt 1.000000 1.000000
vt 0.000000 1.000000
s 0
usemtl Material.004
f 13/13/4 14/14/4 16/15/4 15/16/4
o Plane.004
v -62.814747 -0.916154 62.814747
v 62.814747 -0.916154 62.814747
v -62.814747 -0.916154 -62.814747
v 62.814747 -0.916154 -62.814747
v -62.601028 69.511932 61.974384
v 63.028465 69.511932 61.974384
v -62.796700 59.070862 -63.149914
v 62.832802 59.070862 -63.149914
vn -0.0000 1.0000 -0.0000
vn -0.0000 -0.0119 -0.9999
vn -0.0000 0.0056 1.0000
vt 0.000000 0.000000
vt 1.000000 0.000000
vt 1.000000 1.000000
vt 0.000000 1.000000
s 0
usemtl Material.009
f 17/17/5 18/18/5 20/19/5 19/20/5
f 18/18/6 17/17/6 21/17/6 22/18/6
f 19/20/7 20/19/7 24/19/7 23/20/7
