# Blender v2.90.0 OBJ File: ''
# www.blender.org
o Cube
v 1.000000 1.000000 -1.000000
v 1.000000 -1.000000 -1.000000
v 1.000000 1.000000 1.000000
v 1.000000 -1.000000 1.000000
v -1.000000 1.000000 -1.000000
v -1.000000 -1.000000 -1.000000
v -1.000000 1.000000 1.000000
v -1.000000 -1.000000 1.000000
vn 0.0000 -1.0000 0.0000
vn 1.0000 0.0000 0.0000
vn 0.0000 1.0000 0.0000
vn -1.0000 0.0000 0.0000
vn 0.0000 0.0000 1.0000
s off
f 1//1 3//1 7//1 5//1
f 8//2 6//2 5//2 7//2
f 6//3 8//3 4//3 2//3
f 2//4 4//4 3//4 1//4
f 6//5 2//5 1//5 5//5
